<?xml version="1.0" encoding="UTF-8" standalone="no"?>
<!-- Created with Inkscape (http://www.inkscape.org/) -->

<svg
   xmlns:dc="http://purl.org/dc/elements/1.1/"
   xmlns:cc="http://creativecommons.org/ns#"
   xmlns:rdf="http://www.w3.org/1999/02/22-rdf-syntax-ns#"
   xmlns:svg="http://www.w3.org/2000/svg"
   xmlns="http://www.w3.org/2000/svg"
   xmlns:sodipodi="http://sodipodi.sourceforge.net/DTD/sodipodi-0.dtd"
   xmlns:inkscape="http://www.inkscape.org/namespaces/inkscape"
   width="144"
   height="168"
   id="svg6590"
   version="1.1"
   inkscape:version="0.48.2 r9819"
   sodipodi:docname="n7_logo.svg">
  <defs
     id="defs6592" />
  <sodipodi:namedview
     id="base"
     pagecolor="#ffffff"
     bordercolor="#666666"
     borderopacity="1.0"
     inkscape:pageopacity="0.0"
     inkscape:pageshadow="2"
     inkscape:zoom="0.98994949"
     inkscape:cx="261.37771"
     inkscape:cy="144.45104"
     inkscape:document-units="px"
     inkscape:current-layer="g6613"
     showgrid="false"
     inkscape:window-width="696"
     inkscape:window-height="572"
     inkscape:window-x="44"
     inkscape:window-y="58"
     inkscape:window-maximized="0" />
  <metadata
     id="metadata6595">
    <rdf:RDF>
      <cc:Work
         rdf:about="">
        <dc:format>image/svg+xml</dc:format>
        <dc:type
           rdf:resource="http://purl.org/dc/dcmitype/StillImage" />
        <dc:title></dc:title>
      </cc:Work>
    </rdf:RDF>
  </metadata>
  <g
     inkscape:label="Layer 1"
     inkscape:groupmode="layer"
     id="layer1"
     transform="translate(0,-884.36218)">
    <g
       id="N7"
       transform="matrix(0.40061829,0,0,0.40061829,3.5543651,884.36218)">
      <g
         id="g6613">
        <g
           id="N7_logo"
           inkscape:label="N7_logo"
           transform="matrix(1.067052,0,0,1.067052,-10.60936,0)">
          <rect
             style="fill:#131313"
             y="0"
             id="black_rect"
             height="150.278"
             width="338.444"
             x="1.628" />
          <path
             style="fill:#ffffff;stroke:#000000;stroke-width:2.49614165;stroke-opacity:1;stroke-miterlimit:4;stroke-dasharray:none" />
             inkscape:connector-curvature="0"
             id="logo_N"
             d="m 55.958,57.062 c -1.752,-2.086 -3.9,-3.862 -6.444,-5.324 -2.545,-1.46 -5.15,-2.192 -7.819,-2.192 h -0.574 v 76.917 H 16.672 V 26.245 h 25.022 c 6.672,0 12.281,1.086 16.828,3.257 4.545,2.173 8.903,5.597 13.075,10.273 l 48.419,55.872 c 1.751,2.003 3.878,3.081 6.381,4.584 2.503,1.503 4.41,1.578 7.08,1.578 l 0.575,1.354 V 26.245 h 25.25 v 100.218 h -25.148 c -6.924,0 -12.783,-1.128 -17.578,-3.382 -4.798,-2.255 -9.239,-5.844 -13.325,-10.773 L 55.958,57.062 z" />
          <path
             style="fill:#ffffff;stroke:#000000;stroke-width:2.49614165;stroke-opacity:1;stroke-miterlimit:4;stroke-dasharray:none" />
             inkscape:connector-curvature="0"
             id="logo_7"
             d="M 171.824,26.135 H 303.26 v 8.363 c 0,5.91 -2.36,11.277 -7.081,16.102 l -72.439,75.742 h -35.842 l 78.298,-77.703 c -4.555,0.417 -7.618,0.765 -13.249,1.015 -5.633,0.25 -11.802,0.375 -18.51,0.375 H 171.824 V 26.135 z" />
          <polygon
             style="fill:#9a0000"
             id="red_triangle"
             points="322.105,26.245 322.105,126.342 235.52,126.342 311.806,45.528 311.806,26.245 " />
        </g>
      </g>
    </g>
  </g>
</svg>
